<svg id="Layer_1" data-name="Layer 1" xmlns="http://www.w3.org/2000/svg" viewBox="0 0 483.54 483.54"><defs><style>.cls-1{fill:none;stroke:#231f20;stroke-miterlimit:10;stroke-width:30px;}.cls-2{fill:#231f20;}.cls-3{fill:#fff;}</style></defs><circle class="cls-1" cx="241.77" cy="241.77" r="226.77"/><path class="cls-2" d="M371.71,246.77c0,17-.06,34,0,50.94,0,8.87-4.12,15.43-12.73,19.85q-49.46,25.35-98.88,50.74c-9,4.63-18,4.54-27-.08q-49.18-25.28-98.41-50.5c-8.76-4.48-12.93-11.1-12.92-20V195.84c0-9,4.23-15.53,13-20Q181.41,152,228,128c2-1,3.92-2.07,5.91-3.06,8.5-4.26,17.08-4.4,25.54-.08q49.6,25.36,99.14,50.87c9,4.59,13.35,11.27,13.24,20.57C371.57,213.18,371.71,230,371.71,246.77ZM246.59,320.3a79.71,79.71,0,0,0,8.46-.39c26.74-2.72,47.23-14.32,61.91-34.31,1.31-1.79.87-2.52-1.06-3.5-9.91-5-19.74-10.16-29.6-15.26-3.44-1.77-3.33-1.71-5.7,1.11-10.18,12.15-23.79,17.41-40.62,15.19-20.47-2.7-36.61-19.76-34.46-40,1.88-17.72,18.62-33.31,41.23-33.28,14.43,0,26,5.67,34.25,16.36,1.29,1.67,2.19,1.57,3.91.67,9.68-5,19.42-10,29.15-15,4.29-2.19,4.31-2.16,1.58-5.86-.15-.21-.3-.41-.46-.61-19.61-24-46.08-35-79.2-31.55-46.75,4.9-79.21,45-70.61,86.2C172.64,294.93,206.82,320.28,246.59,320.3Zm95.62-55.95c3.93,0,4.09,0,4-3.39,0-2.46,1.53-2.65,3.52-2.49,2.36.2,3.43-.61,3.14-2.77a13.34,13.34,0,0,1,0-2.19c0-1.2-.61-1.7-2-1.83-4.62-.43-4.62-.46-4.62-4.63a12.06,12.06,0,0,0,0-1.7c-.34-2.36.83-3.34,3.42-3,2.88.36,3.31-1,3.23-3.18-.13-3.5,0-3.62-3.34-3.56-2.42,0-3.67-.63-3.3-2.93s-.84-3.28-3.42-3a16,16,0,0,1-2.19,0c-1.57,0-2.27.54-2.36,2-.25,3.87-.32,3.87-4.65,3.87H332c-3.72,0-3.83,0-3.81-3.39,0-1.94-2-2.43-2.94-2.5h-2.46c-1.84-.1-2.58.6-2.62,2.29-.07,3.46-.16,3.54-3.84,3.57-2,0-2.9.63-2.74,2.43a16.56,16.56,0,0,1,0,2.44c0,1.32.62,1.84,2.11,2,4.49.31,4.48.35,4.48,4.26a16.15,16.15,0,0,0,0,2.2c.31,2.27-.88,3.18-3.32,2.88-3-.38-3.41,1.13-3.35,3.34s.06,3.83,3.25,3.44c2.6-.31,3.78.7,3.4,3s.92,3.07,3.33,2.86c.9-.08,1.82,0,2.73,0a1.67,1.67,0,0,0,1.87-1.44h0a.67.67,0,0,0,0-.2c.62-4.22.65-4.21,5.41-4.21h1.91c2.11-.14,2.9.67,2.89,2.57C338.35,264.34,338.45,264.34,342.21,264.35Z" transform="translate(-5 -5)"/><path class="cls-3" d="M328.17,246.77a8.9,8.9,0,0,0,0-1.46c-.33-2.34.83-3.11,3.42-3.05,7.84.17,6.66-.7,6.74,5.89,0,3.49,0,3.49-3.94,3.51h-.82C327.48,251.69,328.22,251.9,328.17,246.77Z" transform="translate(-5 -5)"/></svg>