<svg id="Layer_1" data-name="Layer 1" xmlns="http://www.w3.org/2000/svg" viewBox="0 0 483.54 483.54"><defs><style>.cls-1{fill:none;stroke:#231f20;stroke-miterlimit:10;stroke-width:30px;}.cls-2{fill:#231f20;}</style></defs><circle class="cls-1" cx="241.77" cy="241.77" r="226.77"/><path class="cls-2" d="M246.77,351.77H180.1c-11.42,0-21.16-4.08-28.84-12.78a35.77,35.77,0,0,1-9.49-24.22v-136c0-12.14,5.39-21.77,14.66-29.17,7-5.57,15-7.88,23.83-7.88h133c13.65,0,24.52,5.63,32.27,17.18a34.62,34.62,0,0,1,6.24,19.57c0,45.55.11,91.1-.06,136.64,0,11.92-5.44,21.43-14.57,28.71-7.17,5.68-15.37,7.95-24.37,7.95C290.77,351.71,268.77,351.77,246.77,351.77ZM227.09,196.1h-9.66c-2.24,0-2.35.09-2.37,2.33a14.65,14.65,0,0,1-.54,4.47q-2.47,7.64-5.05,15.23c-2.37,7-4.79,14-7.17,21q-4.65,13.69-9.27,27.39c-2.33,6.85-4.7,13.69-7,20.56-.76,2.26-.52,2.56,1.75,2.56,4.59,0,9.18-.06,13.77,0,1.82,0,2.56-.75,3.07-2.46,1.76-5.93,3.7-11.81,5.51-17.72a2.51,2.51,0,0,1,2.8-2.1c9.67.09,19.33.07,29,0a2.31,2.31,0,0,1,2.56,1.93c2,6.2,4.16,12.35,6.18,18.55A2.16,2.16,0,0,0,253,289.6H269.1c1.85,0,2.1-.34,1.51-2.07q-4.65-13.59-9.34-27.17-6.82-19.67-13.69-39.3c-2.69-7.73-5.39-15.46-8-23.22a2.33,2.33,0,0,0-2.65-1.83C233.65,196.15,230.37,196.1,227.09,196.1Zm53.76,58.16v33.18c0,2.05.18,2.24,2.12,2.24h14.74c1.55,0,2.11-.52,2.1-2.13V221c0-1.59-.51-2.18-2.08-2.15-4.85.06-9.71,0-14.57,0-2.27,0-2.31,0-2.31,2.33v33.06Zm9.53-43.7c6.49.56,10.71-5.15,10.7-10.85,0-6.44-4.27-10.86-10.54-10.88a10.56,10.56,0,0,0-10.77,10.35h0a5.61,5.61,0,0,0,0,.58c.22,6.41,4.18,11.11,10.61,10.79Z" transform="translate(-5 -5)"/><path class="cls-2" d="M227.09,249.83h-9.32c-1.78,0-2-.24-1.5-2,1.77-6.21,3.59-12.41,5.39-18.61L226,214.36c.11-.37.18-.76.31-1.12s.2-.83.69-.81.58.46.7.83c.67,2.23,1.33,4.46,2,6.71,2.59,8.63,5.15,17.28,7.79,25.9,1.21,4,1.27,4-2.75,4Z" transform="translate(-5 -5)"/></svg>