<svg id="Layer_1" data-name="Layer 1" xmlns="http://www.w3.org/2000/svg" viewBox="0 0 483.54 483.54"><defs><style>.cls-1{fill:#fff;}.cls-2{fill:none;stroke:#231f20;stroke-miterlimit:10;stroke-width:30px;}.cls-3{fill:#231f20;}</style></defs><path class="cls-1" d="M363.27,222a11.85,11.85,0,0,0,0-1.46c-.33-2.34.83-3.11,3.42-3,7.84.17,6.66-.7,6.74,5.89,0,3.49,0,3.49-3.94,3.51h-.82C362.58,226.89,363.32,227.1,363.27,222Z" transform="translate(-2.5 -2.5)"/><circle class="cls-2" cx="241.77" cy="241.77" r="226.77"/><path class="cls-3" d="M285.69,304.4l-4.93-.44c-4.25-.37-8.49-1-12.7-1.64a189,189,0,0,1-21.3-4.56c-8-2.23-15.81-4.92-22.84-9.27a28.67,28.67,0,0,1-7.35-6.22c-3.91-4.81-4.28-10-1.53-15.36a31.39,31.39,0,0,1,6-7.88,86.34,86.34,0,0,1,10.35-8.45c8.89-6.43,16.86-13.7,23.19-22.44,4.95-6.83,8.63-14.18,10-22.38a35.29,35.29,0,0,0-8-30,46.17,46.17,0,0,0-11-9.43,11.4,11.4,0,0,1-2.68-2.16,4.61,4.61,0,0,1-.34-6.26,19.16,19.16,0,0,1,6.41-5.25,95.8,95.8,0,0,1,16.53-7.19c4.18-1.46,8.43-2.72,12.69-3.94h.34c.91,2.71,1.77,5.45,2.74,8.14a75.39,75.39,0,0,0,6.25,13.9,19.09,19.09,0,0,0,4,4.94,7.11,7.11,0,0,0,3.82,1.36,185.75,185.75,0,0,1,27.5,5.82,135.66,135.66,0,0,1,27,11,80.3,80.3,0,0,1,18,13,23.6,23.6,0,0,1,4.55,5.69c1.17,2.24.54,2.28-1.3,2.55-11,1.62-21.79,3.87-32.56,6.42q-15.06,3.57-30,7.92c-.79.23-1,.47-.72,1.26a57.37,57.37,0,0,1,2.46,11.59,80.79,80.79,0,0,1,.51,11.43,96.92,96.92,0,0,1-3.68,23.81,126.57,126.57,0,0,1-14.93,33.05,1.79,1.79,0,0,1-1.32,1Zm43.25-92.26a138.75,138.75,0,0,1,19.84-3.31q4.79-.57,9.58-1l10.38-1c.88-.08,1-.17.47-.86a22.49,22.49,0,0,0-3.51-3.72,153.29,153.29,0,0,0-17.49-12.68c-1.38-.9-1.39-.88-2.15.56-.06.13-.13.25-.2.37a80.42,80.42,0,0,1-7.47,10.58c-3,3.72-6.11,7.34-9.45,11Zm-25.89,52.05a43.61,43.61,0,0,1-5.95,3c-8.23,3.63-16.64,6.89-25,10.12-.25.1-.68.08-.68.41s.34.44.57.59a21.06,21.06,0,0,0,4.62,2.07,143.21,143.21,0,0,0,19.8,4.71.77.77,0,0,0,.93-.39,16.35,16.35,0,0,0,1.79-3.69,80.75,80.75,0,0,0,3.39-13.6c.16-1,.33-2.07.53-3.22ZM343,188.7c-11.11,3.12-21.89,7-32.88,10.83a33.26,33.26,0,0,1,3.71,2.75,60,60,0,0,1,8.85,10.11c.62.87.62.87,1.38.13a120.56,120.56,0,0,0,16.25-19.32,31.48,31.48,0,0,0,2.69-4.5ZM220,268.92a9.22,9.22,0,0,0,1.31-.25c7.7-1.64,15.22-3.82,22.75-6,.54-.15.53-.35.34-.76a40.64,40.64,0,0,1-3.72-13.84c0-.68-.21-.81-.88-.49a44.73,44.73,0,0,0-15.34,11.31,26.66,26.66,0,0,0-5.27,9.24c-.16.52-.19.87.76.79Zm75.46,17.49a88.85,88.85,0,0,1-11.72-1.53A92.11,92.11,0,0,1,270.16,281c-.31-.11-.59-.33-.89.11a133.64,133.64,0,0,1-9.17,11.37c-1.53,1.82-3.1,3.62-4.66,5.4l.13.27c13.77-2.45,26.72-7.35,39.86-11.76Zm45.47-100.14c-.34-.16-.66-.34-1-.49-7.69-3.32-15.85-5.38-23.94-7.62-.51-.14-.62.09-.68.46-.11.66-.2,1.32-.35,2-1,4.23-2.35,8.38-3.71,12.53-.37,1.14-.74,2.3-1.16,3.58,10.07-4.43,20.47-7.31,30.87-10.44Zm-63.62,68.89c-1,.42-1.89.79-2.76,1.12-7.19,2.68-14.54,5-21.86,7.31-1,.32-1,.32-.34,1.09a44.17,44.17,0,0,0,14.8,10.89c.81.38,1.16.22,1.6-.45a68.84,68.84,0,0,0,8.57-20Zm-15.06,22.5-1.46-.81A89.83,89.83,0,0,1,248.06,268c-1-.79-1-.8-1.84.26L231,286.5c-.32.38-.56.72-.17,1.24s.81.35,1.3.19l22.12-7.55,7.91-2.72Zm40.43-15.31c-.71-.22-1.44-.43-2.15-.67a162.24,162.24,0,0,1-16.64-7.21c-.71-.35-1-.23-1.28.43-1,2.17-2.14,4.31-3.23,6.46l-5.82,11.55c-.09.19-.34.41-.15.61s.46.1.68.06c.84-.15,1.67-.35,2.49-.58,8.92-2.74,17.34-6.59,25.8-10.33.12-.06.26-.1.29-.32Zm-15.78-38,.64-.21c10.15-3.25,20.39-6.2,30.61-9.24,1.77-.53,1.77-.5.47-1.82-3.66-3.73-8.19-6.32-12.9-8.68-.45-.22-.66-.11-.93.25-3.2,4.16-6.89,7.94-10.47,11.81-2.39,2.59-4.83,5.14-7.42,7.89Zm-43.33,41.71c-4,1-7.84,2-11.69,2.78a104,104,0,0,1-11,1.9c-2.22.24-2.23-.16-1.89,2.06.05.27.07.55.13.82,1.17,5.29,4.6,9.1,9.12,12.21a.55.55,0,0,0,.77,0,.76.76,0,0,0,.11-.14l2-2.52c3.78-4.77,7.62-9.51,11-14.57a10.41,10.41,0,0,0,1.39-2.56Zm18.15,32.17c.76.33,1.33.59,1.93.79a86.74,86.74,0,0,0,15.72,3.17c3.21.44,6.45.74,9.66,1.07a1.49,1.49,0,0,0,1.75-.82,88.79,88.79,0,0,0,4.34-9.52c.59-1.41,1.12-2.83,1.74-4.43a218.36,218.36,0,0,1-35.14,9.73Zm2.79-17.17-.14-.18-31,7.85a23,23,0,0,0,5.07,3.32,51.77,51.77,0,0,0,14,4.42,1.41,1.41,0,0,0,1.62-.61c2.32-3.34,4.68-6.65,7-10Zm2.41-44.27c-3.55,8.18-8.54,15.62-13.15,23.41,4.93-1.43,9.63-3,14.23-4.77a82.39,82.39,0,0,0,9.71-4.42c.31-.17.79-.3.22-.74a40.15,40.15,0,0,1-4.25-4,33.37,33.37,0,0,1-6.76-9.51ZM306.73,245c0-.68-.09-1.84-.15-3,0-.82-.17-.89-.93-.48-2.53,1.36-5,2.76-7.61,4.09a117.2,117.2,0,0,1-11.77,5.59c-.46.18-.51.33-.08.58l1.53,1a59.61,59.61,0,0,0,14.62,7c1.7.52,1.7.53,2.21-1.1A48.56,48.56,0,0,0,306.71,245Zm-21,3.07c3-1.4,5.93-2.7,8.79-4.07a86.14,86.14,0,0,0,9.66-5.06c.85-.54.83-.56,0-1l-15.49-8.67c-.34-.17-.68-.57-1-.41s-.17.7-.17,1.07c0,6,0,12.06-1.8,18.12Zm-5.37-91.58c1.54,0,1.61,0,1.44-1.09,0-.3-.09-.6-.16-.9a78.68,78.68,0,0,0-3.49-9.91c-.26-.68-.53-.83-1.27-.51-5.53,2.38-11.07,4.72-16.6,7.09-.92.4-1.8.84-2.7,1.26-.18.09-.42.17-.4.4s.31.24.49.29c.54.15,1.08.28,1.63.39,4.56.92,9.17,1.5,13.79,2.13,2.53.36,5.08.62,7.28.87Zm32.21,21.58-20.65,12.47c.63.24,1.14.42,1.65.63a107.1,107.1,0,0,1,10.7,5.26c.62.33.88.24,1.21-.33a69.82,69.82,0,0,0,4.41-8.5,31.3,31.3,0,0,0,2.64-9.53Zm-29.19,56.85a30.51,30.51,0,0,0-.34-4.37c-.07-.53-.19-.66-.75-.45q-6.12,2.37-12.23,4.68c-.41.16-.55.33-.34.74a31.41,31.41,0,0,0,10,12.07c.68.47.93.36,1.22-.36a33.85,33.85,0,0,0,2.43-12.29Zm24.71-57.69a3.75,3.75,0,0,0-.47-.17l-20.87-4c-.25,0-.57-.25-.75,0s.12.49.24.72a17.62,17.62,0,0,1,2.22,10.49c-.13,1.14-.46,2.24-.66,3.5Zm-26.53-18c-9.17-1.08-18-3.12-27.05-4.88a3.09,3.09,0,0,0,.26.37c3.53,3.94,7.45,7.55,11.24,11.27a1.33,1.33,0,0,0,.89.31,6.72,6.72,0,0,0,4.24-1c3.39-2.07,6.9-4,10.4-6ZM260.07,238.5l-.51.15c-4.51,1.86-8.82,4.08-13.24,6.15a.84.84,0,0,0-.48,1,47.92,47.92,0,0,0,.77,7.07,20.36,20.36,0,0,0,1.66,5.4c.29.56.56.66,1,.1.27-.36.61-.68.89-1A57.68,57.68,0,0,0,257,245.78c1.07-2.3,2.11-4.65,3-7.19Zm25.2-53.95h.15c-.11-1.57-.17-3.15-.36-4.71a17.71,17.71,0,0,0-1.84-6.36c-.3-.55-.55-.66-1.11-.2-4,3.26-8.05,6.49-12.08,9.73-.13.1-.34.2-.27.39s.29.14.45.19c1.36.38,2.72.73,4.08,1.17q5.08,1.63,10.18,3.37c.62.21.86.14.83-.52-.07-1-.05-2-.05-3.05Zm14.13,20.12-.61.3c-4.09,2.22-8.21,4.39-12.4,6.44L279.08,215c-.19.09-.66.1-.37.48,1.41,1.89,1.78,4.13,2.38,6.28.36,1.31.58,2.69.9,4.2,5.79-7.19,11.64-14.15,17.39-21.24ZM251.08,239l.1.12c1.09-.53,2.18-1.08,3.29-1.59,7.13-3.31,14.39-6.43,21.64-9.55,2.37-1,2.42-1,2-3.47a7.83,7.83,0,0,0-2.64-4.76c-.21-.19-.38-.43-.71-.09a75.11,75.11,0,0,1-6.82,5.9q-5.26,4.28-10.56,8.48c-2,1.67-4.11,3.31-6.27,5Zm29.25-67.23c-6-.82-11.73-1.62-17.48-2.38-.36,0-.86-.33-1.08-.07s.15.7.3,1a81.22,81.22,0,0,1,4.07,10.51c.2.75.39.6.88.26,2.52-1.79,5.06-3.55,7.58-5.32,1.88-1.25,3.73-2.53,5.76-4Zm10.19,55.93c.05.22.25.25.39.33,2.66,1.44,5.31,2.89,8,4.3,2.13,1.13,4.29,2.22,6.5,3.21.89.4,1,.35,1-.59v-1.91a44.8,44.8,0,0,0-.8-9.39c-.12-.59-.31-.76-1-.54-4.29,1.4-8.59,2.75-12.9,4.13a2.57,2.57,0,0,0-1.16.47Zm-21-24a3.13,3.13,0,0,0,.42-.29l11.33-10.12c.43-.38.28-.59-.16-.79-.93-.42-1.84-.88-2.78-1.26A75.68,75.68,0,0,0,269,188.3c-.56-.14-.68-.05-.54.48a12.9,12.9,0,0,1,.34,2.05c.31,4,.55,7.94.56,11.92a1.6,1.6,0,0,0,.13.94Zm30.36-3.18-.57-.31-10-5.09c-1.54-.78-1.53-.8-1.88.77a86.76,86.76,0,0,1-3.32,10.56c-.29.83-.6,1.66-.94,2.62Zm-16.32-4.23c-.41.28-.63.4-.83.56l-8.38,6.51c-1.4,1.1-2.82,2.18-4.21,3.28-.24.2-.78.41-.17.8,2,1.36,4,2.88,5.87,4.4.51.4.68.24,1-.18a34.25,34.25,0,0,0,4.35-7.94,47.06,47.06,0,0,0,2.36-7.42ZM260.19,164.9v-.13l-8-8.86c-.2-.22-.42-.33-.68-.13a28.17,28.17,0,0,0-5.22,4.21c-.58.66-.45,1,.37,1.4a25.14,25.14,0,0,0,3.51,1.12c3.32.93,6.67,1.65,10,2.39ZM287.4,169c-1.15-2.55-2.23-5-3.31-7.37-.21-.49-.5-.24-.76-.08l-4.6,2.62-4.9,2.83Zm-17.13,52.12a1.41,1.41,0,0,0-.82.24,58.43,58.43,0,0,0-10.18,5.91,25.82,25.82,0,0,0-4.61,3.72c-1.14,1.31-2.2,2.68-3.28,4L248,239.12l.11.07Zm-8.39,1.15h.21a97.17,97.17,0,0,0,9.31-6.71c.39-.31.37-.57,0-.88a11.91,11.91,0,0,0-3.56-2c-.53-.21-.79-.08-1,.42a34.18,34.18,0,0,1-2.16,4.27c-.94,1.6-1.86,3.22-2.81,4.87Zm.26-44c-.91-2.81-1.84-5.62-2.72-8.44a1.4,1.4,0,0,0-1-1c-2.3-.7-4.58-1.44-6.87-2.16-.1,0-.24-.17-.34,0a136.65,136.65,0,0,1,11,11.62Z" transform="translate(-2.5 -2.5)"/><path class="cls-3" d="M133.27,295.16h-1.8V282.34c0-.55.07-1.14.12-1.78h0l-.24,1c-.06.23-.14.44-.22.66l-5.27,13H125l-5.22-13c-.07-.18-.15-.42-.23-.71s-.16-.63-.23-1h0c0,.33,0,.78.07,1.31s0,1.21,0,2v11.29h-1.75V278.27H120L124.7,290c.19.44.34.84.46,1.18s.18.56.25.84h.06l.42-1.21c.13-.35.23-.63.33-.86l4.83-11.72h2.22Z" transform="translate(-2.5 -2.5)"/><path class="cls-3" d="M138,280.27a1.2,1.2,0,0,1-.9-.4,1.46,1.46,0,0,1,0-1.94,1.24,1.24,0,0,1,1.7-.1l.1.1a1.46,1.46,0,0,1,0,1.94A1.16,1.16,0,0,1,138,280.27Zm.86,14.93h-1.76V283.11h1.76Z" transform="translate(-2.5 -2.5)"/><path class="cls-3" d="M150.2,294.44a6.18,6.18,0,0,1-1.52.76,5.86,5.86,0,0,1-1.67.24,5,5,0,0,1-3.81-1.58,6.23,6.23,0,0,1-1.49-4.47,7.32,7.32,0,0,1,1.5-4.75,5,5,0,0,1,4.12-1.81,5.93,5.93,0,0,1,1.62.23,6.35,6.35,0,0,1,1.56.73l-.75,1.42a4.86,4.86,0,0,0-1.2-.56,4.32,4.32,0,0,0-1.29-.17,3.21,3.21,0,0,0-2.78,1.33,5.52,5.52,0,0,0-1,3.36,5.19,5.19,0,0,0,1,3.45,3.29,3.29,0,0,0,2.63,1.18,3.43,3.43,0,0,0,1.1-.18,4.63,4.63,0,0,0,1.16-.57Z" transform="translate(-2.5 -2.5)"/><path class="cls-3" d="M158.06,284.76a1.61,1.61,0,0,0-.36-.1,2.81,2.81,0,0,0-.41,0,2.38,2.38,0,0,0-2.12,1.25,5.75,5.75,0,0,0-.77,3.14v6.14h-1.77V283.11h1.76v2.39h0a3.83,3.83,0,0,1,1.15-1.94,2.73,2.73,0,0,1,1.79-.66h.56a1.91,1.91,0,0,1,.41.11Z" transform="translate(-2.5 -2.5)"/><path class="cls-3" d="M164.91,295.44a4.93,4.93,0,0,1-3.9-1.69,6.59,6.59,0,0,1-1.46-4.47,6.86,6.86,0,0,1,1.51-4.73,5.21,5.21,0,0,1,4.11-1.72,4.71,4.71,0,0,1,3.84,1.66,7,7,0,0,1,1.38,4.59,6.82,6.82,0,0,1-1.49,4.63A5,5,0,0,1,164.91,295.44Zm.13-1.64a3.11,3.11,0,0,0,2.63-1.22,5.66,5.66,0,0,0,.92-3.44,5.83,5.83,0,0,0-.93-3.49,3.11,3.11,0,0,0-2.62-1.22,3.25,3.25,0,0,0-2.69,1.27,5.51,5.51,0,0,0-1,3.49,5.14,5.14,0,0,0,1,3.37,3.23,3.23,0,0,0,2.64,1.25Z" transform="translate(-2.5 -2.5)"/><path class="cls-3" d="M172.16,294.27l.84-1.48a7.09,7.09,0,0,0,1.42.8,4.39,4.39,0,0,0,1.48.26,2.72,2.72,0,0,0,1.71-.46,1.63,1.63,0,0,0,.59-1.38,1.69,1.69,0,0,0-.52-1.25,3.87,3.87,0,0,0-1.63-.82,5.82,5.82,0,0,1-2.78-1.47,3.11,3.11,0,0,1-.76-2.16,3.3,3.3,0,0,1,1-2.48,3.92,3.92,0,0,1,2.85-1,5.33,5.33,0,0,1,3.3,1.1l-.79,1.45a5.91,5.91,0,0,0-1.36-.72,3.48,3.48,0,0,0-1.2-.21,2.74,2.74,0,0,0-1.63.43,1.49,1.49,0,0,0-.56,1.24,1.41,1.41,0,0,0,.58,1.23,6.53,6.53,0,0,0,1.85.77,5.65,5.65,0,0,1,2.51,1.38,3.23,3.23,0,0,1,.84,2.33,3.38,3.38,0,0,1-1.09,2.62,4.21,4.21,0,0,1-3,1,6,6,0,0,1-3.66-1.21Z" transform="translate(-2.5 -2.5)"/><path class="cls-3" d="M187.14,295.44a4.93,4.93,0,0,1-3.9-1.69,6.58,6.58,0,0,1-1.45-4.47,6.92,6.92,0,0,1,1.5-4.73,5.21,5.21,0,0,1,4.11-1.72,4.71,4.71,0,0,1,3.84,1.66,7,7,0,0,1,1.38,4.59,6.86,6.86,0,0,1-1.48,4.63A5,5,0,0,1,187.14,295.44Zm.13-1.64a3.11,3.11,0,0,0,2.63-1.22,5.66,5.66,0,0,0,.92-3.44,5.83,5.83,0,0,0-.93-3.49,3.11,3.11,0,0,0-2.62-1.22,3.25,3.25,0,0,0-2.69,1.27,5.52,5.52,0,0,0-1,3.5,5.19,5.19,0,0,0,1,3.38,3.27,3.27,0,0,0,2.69,1.23Z" transform="translate(-2.5 -2.5)"/><path class="cls-3" d="M200.7,278.9a2.55,2.55,0,0,0-.54-.15,2.21,2.21,0,0,0-.51-.05,1.61,1.61,0,0,0-1.38.57,2.33,2.33,0,0,0-.44,1.55v2.33h2.58v1.64h-2.58v10.4h-1.76V284.76h-1.88v-1.65h1.88v-2.42a3.33,3.33,0,0,1,3-3.62,2.91,2.91,0,0,1,.59,0,4.74,4.74,0,0,1,.75.06,5.31,5.31,0,0,1,.68.2Z" transform="translate(-2.5 -2.5)"/><path class="cls-3" d="M207.58,295a5.78,5.78,0,0,1-.89.29,4.79,4.79,0,0,1-1,.11,2.67,2.67,0,0,1-2.06-.85,3.61,3.61,0,0,1-.75-2.49v-7.32H201v-1.65h1.89v-2.95l1.77-.62v3.56h2.77v1.64h-2.75v7.11a2.51,2.51,0,0,0,.34,1.49,1.18,1.18,0,0,0,1,.46,2.57,2.57,0,0,0,.62-.08,3,3,0,0,0,.5-.19Z" transform="translate(-2.5 -2.5)"/><path class="cls-3" d="M115.57,339.27l2.32-4a15.87,15.87,0,0,0,3.92,1.87,13.89,13.89,0,0,0,4,.55,6.83,6.83,0,0,0,4.16-1.14,4.26,4.26,0,0,0,.56-6l-.26-.28a12.17,12.17,0,0,0-4.28-2,17.19,17.19,0,0,1-7-3.43,7.3,7.3,0,0,1-2.21-5.6,8.15,8.15,0,0,1,2.87-6.35,11.4,11.4,0,0,1,7.81-2.54,18.42,18.42,0,0,1,8.4,2l-2,4.11a14.86,14.86,0,0,0-3.34-1.34,12.92,12.92,0,0,0-3.27-.42,6.16,6.16,0,0,0-3.82,1.06,3.54,3.54,0,0,0-1.39,3,3.25,3.25,0,0,0,1.27,2.69,14.48,14.48,0,0,0,4.39,1.93,16.33,16.33,0,0,1,7,3.56,8.1,8.1,0,0,1,2.11,5.91,8.54,8.54,0,0,1-2.88,6.64c-1.93,1.73-4.68,2.6-8.25,2.59a20,20,0,0,1-5.23-.7A18.22,18.22,0,0,1,115.57,339.27Z" transform="translate(-2.5 -2.5)"/><path class="cls-3" d="M155.37,342.05a14,14,0,0,1-10.65-4.29,15.65,15.65,0,0,1-4.07-11.19q0-7.36,4.12-11.82t11.1-4.48a13.5,13.5,0,0,1,10.4,4.32q4,4.28,3.94,11.28a20.64,20.64,0,0,1-1.33,7.62,12.38,12.38,0,0,1-3.91,5.37l5.46,4.33-3.7,3.74-6.24-5.54a20.88,20.88,0,0,1-2.48.48A19.41,19.41,0,0,1,155.37,342.05Zm.28-27.15a8.56,8.56,0,0,0-6.89,3.11,14.29,14.29,0,0,0,0,16.39,8.31,8.31,0,0,0,6.72,3.08,8.45,8.45,0,0,0,6.84-3c1.65-2,2.48-4.74,2.47-8.22s-.8-6.43-2.4-8.43a8.05,8.05,0,0,0-6.69-3Z" transform="translate(-2.5 -2.5)"/><path class="cls-3" d="M193.47,341.53H176.32v-30.7h5.22v26.32h11.93Z" transform="translate(-2.5 -2.5)"/><path class="cls-3" d="M208,339.27l2.32-4a16.26,16.26,0,0,0,3.92,1.88,13.89,13.89,0,0,0,4,.54,6.89,6.89,0,0,0,4.16-1.13,4.29,4.29,0,0,0,.48-6.05l-.22-.24a12.21,12.21,0,0,0-4.29-2,17.08,17.08,0,0,1-7-3.44,7.31,7.31,0,0,1-2.22-5.6,8.15,8.15,0,0,1,2.87-6.35,11.45,11.45,0,0,1,7.81-2.53,18.67,18.67,0,0,1,4.28.49,18.37,18.37,0,0,1,4.12,1.52l-2,4.11a16.17,16.17,0,0,0-3.35-1.34,13.38,13.38,0,0,0-3.27-.41,6.1,6.1,0,0,0-3.82,1.06,3.54,3.54,0,0,0-1.39,3,3.25,3.25,0,0,0,1.27,2.69,14.5,14.5,0,0,0,4.39,1.94c3.22.93,5.54,2.12,6.95,3.55a8.08,8.08,0,0,1,2.12,5.91,8.55,8.55,0,0,1-2.89,6.64c-1.93,1.73-4.68,2.6-8.25,2.59a19.62,19.62,0,0,1-5.23-.7A18.5,18.5,0,0,1,208,339.27Z" transform="translate(-2.5 -2.5)"/><path class="cls-3" d="M253.57,331.64H238.18A7,7,0,0,0,240,336.5a6.6,6.6,0,0,0,4.82,1.67,9.88,9.88,0,0,0,2.85-.51,11.44,11.44,0,0,0,3.23-1.64l2.28,3.19a14.77,14.77,0,0,1-9.07,2.88q-5.25,0-8.17-3T233,330.63a12.48,12.48,0,0,1,3-8.73,10,10,0,0,1,7.76-3.33,9.15,9.15,0,0,1,7.13,2.84c1.71,1.89,2.57,4.55,2.59,8Zm-4.91-3.51a6.64,6.64,0,0,0-1.28-4.37,4.47,4.47,0,0,0-3.6-1.48,5,5,0,0,0-3.71,1.59,7.29,7.29,0,0,0-1.87,4.26Z" transform="translate(-2.5 -2.5)"/><path class="cls-3" d="M271.27,323.36a8.33,8.33,0,0,0-.84-.17,6,6,0,0,0-.94-.07,4.83,4.83,0,0,0-4.16,2,8.78,8.78,0,0,0-1.47,5.29V341.5h-5.14V319.07h5.14v4.33h.08a7.07,7.07,0,0,1,2.33-3.52,5.77,5.77,0,0,1,3.65-1.19,9.77,9.77,0,0,1,1.08.06,7.48,7.48,0,0,1,.94.2Z" transform="translate(-2.5 -2.5)"/><path class="cls-3" d="M295.27,319.07l-8.73,22.46H281l-8.29-22.46h5.54l4.93,15.2c.2.69.37,1.32.51,1.92a12.43,12.43,0,0,1,.26,1.62h.09a13.53,13.53,0,0,1,.28-1.67,15,15,0,0,1,.5-1.74l5.09-15.33Z" transform="translate(-2.5 -2.5)"/><path class="cls-3" d="M322.36,332H308.1a6.76,6.76,0,0,0,1.72,4.64,6,6,0,0,0,4.45,1.63,8.79,8.79,0,0,0,2.64-.48,10.61,10.61,0,0,0,3-1.57l2.11,3a13.42,13.42,0,0,1-8.41,2.74,9.82,9.82,0,0,1-7.55-2.88q-2.69-2.89-2.73-8.1a12.13,12.13,0,0,1,2.81-8.34,9.14,9.14,0,0,1,7.18-3.18,8.31,8.31,0,0,1,6.61,2.71q2.38,2.71,2.4,7.68Zm-4.54-3.38a6.52,6.52,0,0,0-1.2-4.17A4.08,4.08,0,0,0,313.3,323a4.55,4.55,0,0,0-3.46,1.51,7,7,0,0,0-1.73,4.08Z" transform="translate(-2.5 -2.5)"/><path class="cls-3" d="M338.77,324.08c-.27-.07-.53-.12-.78-.16a4.34,4.34,0,0,0-.88-.06,4.41,4.41,0,0,0-3.85,1.93,8.58,8.58,0,0,0-1.36,5.07v10.6h-4.76V320h4.76v4.13H332a6.74,6.74,0,0,1,2.15-3.36,5.24,5.24,0,0,1,3.38-1.14,8.39,8.39,0,0,1,1,.06,5.19,5.19,0,0,1,.87.19Z" transform="translate(-2.5 -2.5)"/></svg>