<svg id="Layer_1" data-name="Layer 1" xmlns="http://www.w3.org/2000/svg" viewBox="0 0 255.9 204.06"><defs><style>.cls-1{fill:#231f20;stroke:#000;stroke-miterlimit:10;stroke-width:3px;}</style></defs><path class="cls-1" d="M232.32,28.82a31.87,31.87,0,0,0-40.09,20.43L178,93.12,163.72,49.25A31.82,31.82,0,0,0,103.2,68.91l14.6,44.92L79.68,86.13a31.82,31.82,0,1,0-37.4,51.48L79.56,164.7H33.22a31.82,31.82,0,0,0,0,63.63H177.43V228l.47,0c1,0,2-.07,3-.17v0h0l.75-.08.65-.09c.53-.08,1.05-.18,1.57-.28v0l.49-.1.53-.13.78-.19c.23-.06.46-.1.69-.17v0l.39-.11v0l.29-.08c.26-.06.52-.13.76-.21.62-.2,1.2-.48,1.8-.71l.5-.2a31.52,31.52,0,0,0,18.27-20.28L252.75,68.91A31.87,31.87,0,0,0,232.32,28.82ZM108.55,67.18A26.2,26.2,0,0,1,158.38,51L175,102.22,147.67,186.4c-.06.2-.13.39-.19.59l-21.94-67.54h0ZM39.79,96.48a26.21,26.21,0,0,1,36.58-5.8l44.38,32.25,26.32,81a30.72,30.72,0,0,0,1.15,3.72L45.58,133.07A26.23,26.23,0,0,1,39.79,96.48ZM7,196.51a26.22,26.22,0,0,1,26.19-26.19H87.3L159,222.37l.28-.38a2.26,2.26,0,0,1,.2.13l.87.58H33.22A26.21,26.21,0,0,1,7,196.51ZM247.4,67.17l-43.93,135.2h0l-.64,2a28.2,28.2,0,0,1-1.1,2.81c-.11.23-.24.45-.35.68-.33.68-.69,1.34-1.07,2l-.46.72c-.4.61-.83,1.2-1.27,1.78-.17.21-.33.42-.5.62a22.22,22.22,0,0,1-1.67,1.83l-.32.34A26.14,26.14,0,0,1,193.9,217c-.22.17-.45.31-.67.48-.56.39-1.12.78-1.7,1.13-.32.2-.65.38-1,.56-.53.29-1.08.56-1.63.82-.34.16-.67.32-1,.46-.7.29-1.41.54-2.14.77a25.94,25.94,0,0,1-11.94.88h0l-.77-.13h0c-.71-.13-1.43-.31-2.14-.5h0l-.27-.07h0c-.27-.08-.55-.13-.82-.22A27.25,27.25,0,0,1,167,220l-.75-.37c-.69-.35-1.37-.72-2-1.13-.22-.13-.44-.26-.65-.4a26.69,26.69,0,0,1-2.37-1.74l0,0a26.46,26.46,0,0,1-4.4-4.75l-.09-.13a27,27,0,0,1-4.13-8.95,26.16,26.16,0,0,1-.43-10.49c0-.21.06-.43.11-.64a24.64,24.64,0,0,1,.81-3.26l27.92-85.92h0L197.57,51a26.25,26.25,0,0,1,24.93-18.1,25.84,25.84,0,0,1,8.08,1.29A26.23,26.23,0,0,1,247.4,67.17Z" transform="translate(0.09 -25.76)"/><path class="cls-1" d="M150.7,59.28a17.29,17.29,0,1,0-17.29,17.29A17.31,17.31,0,0,0,150.7,59.28Zm-28.95,0A11.67,11.67,0,1,1,133.41,71,11.67,11.67,0,0,1,121.75,59.28Z" transform="translate(0.09 -25.76)"/><path class="cls-1" d="M60.55,94.13a17.29,17.29,0,1,0,17.28,17.29A17.31,17.31,0,0,0,60.55,94.13Zm0,29a11.67,11.67,0,1,1,11.66-11.66A11.68,11.68,0,0,1,60.55,123.08Z" transform="translate(0.09 -25.76)"/><path class="cls-1" d="M33.4,179.33a17.29,17.29,0,1,0,17.29,17.29A17.31,17.31,0,0,0,33.4,179.33Zm0,28.95a11.66,11.66,0,1,1,11.67-11.66A11.67,11.67,0,0,1,33.4,208.28Z" transform="translate(0.09 -25.76)"/><path class="cls-1" d="M178.07,178.81a17.29,17.29,0,1,0,17.29,17.29A17.31,17.31,0,0,0,178.07,178.81Zm0,28.95a11.66,11.66,0,1,1,11.67-11.66A11.67,11.67,0,0,1,178.07,207.76Z" transform="translate(0.09 -25.76)"/><path class="cls-1" d="M222.77,41.25a17.29,17.29,0,1,0,17.29,17.28A17.3,17.3,0,0,0,222.77,41.25Zm0,29a11.67,11.67,0,1,1,11.67-11.67A11.68,11.68,0,0,1,222.77,70.2Z" transform="translate(0.09 -25.76)"/></svg>