<svg id="Layer_1" data-name="Layer 1" xmlns="http://www.w3.org/2000/svg" viewBox="0 0 189.46 256.9"><defs><style>.cls-1{fill:#231f20;stroke:#000;stroke-miterlimit:10;stroke-width:4px;}</style></defs><path class="cls-1" d="M220.55,65.87a2.38,2.38,0,0,0-.15-.75,2,2,0,0,0-.09-.26,3,3,0,0,0-.54-.8h0L158,2.23h0a2.61,2.61,0,0,0-.79-.53l-.27-.1a2.62,2.62,0,0,0-.73-.14,1.49,1.49,0,0,0-.18,0H54.8A19.69,19.69,0,0,0,35.13,21.08V234.64A19.69,19.69,0,0,0,54.8,254.31H200.92a19.7,19.7,0,0,0,19.67-19.67V66A1,1,0,0,0,220.55,65.87ZM211,63.23H158.77V11Zm4,171.41a14.08,14.08,0,0,1-14.05,14.05H54.8a14.07,14.07,0,0,1-14-14.05V21.08a14.06,14.06,0,0,1,14-14h98.35V66A2.81,2.81,0,0,0,156,68.85h59Z" transform="translate(-33.13 0.59)"/><circle class="cls-1" cx="52.58" cy="141.09" r="5.62"/><rect class="cls-1" x="75.06" y="104.56" width="70.25" height="5.62"/><rect class="cls-1" x="75.06" y="138.28" width="70.25" height="5.62"/><rect class="cls-1" x="75.06" y="172" width="70.25" height="5.62"/><circle class="cls-1" cx="52.58" cy="107.37" r="5.62"/><circle class="cls-1" cx="52.58" cy="174.81" r="5.62"/></svg>