<svg id="Layer_1" data-name="Layer 1" xmlns="http://www.w3.org/2000/svg" viewBox="0 0 190.71 252.9"><defs><style>.cls-1{fill:#212529;}</style></defs><path class="cls-1" d="M209.13,254.31H46.59A14.1,14.1,0,0,1,32.5,240.22V15.49A14.1,14.1,0,0,1,46.59,1.41H168.33a5.66,5.66,0,0,1,4,1.64l49.25,49.26a5.58,5.58,0,0,1,1.65,4V240.22A14.1,14.1,0,0,1,209.13,254.31ZM46.59,12.65a2.84,2.84,0,0,0-2.85,2.84V240.22a2.86,2.86,0,0,0,2.85,2.85H209.13a2.85,2.85,0,0,0,2.84-2.85V58.61l-46-46Z" transform="translate(-32.5 -1.4)"/><path class="cls-1" d="M217.59,61.9H176.05a13.35,13.35,0,0,1-13.34-13.33V7a5.62,5.62,0,0,1,9.6-4l49.25,49.26a5.62,5.62,0,0,1-4,9.59ZM174,20.6v28a2.1,2.1,0,0,0,2.1,2.1h28Z" transform="translate(-32.5 -1.4)"/><path class="cls-1" d="M184.29,224.9H71.42a5.62,5.62,0,0,1-5.62-5.62V192.19a5.62,5.62,0,0,1,5.62-5.62H184.29a5.62,5.62,0,0,1,5.62,5.62v27.09A5.62,5.62,0,0,1,184.29,224.9ZM77,213.66H178.67V197.81H77Z" transform="translate(-32.5 -1.4)"/><path class="cls-1" d="M184.29,197.81H71.42a5.62,5.62,0,0,1-5.62-5.62V165.1a5.62,5.62,0,0,1,5.62-5.62H184.29a5.62,5.62,0,0,1,5.62,5.62v27.09A5.62,5.62,0,0,1,184.29,197.81ZM77,186.57H178.67V170.72H77Z" transform="translate(-32.5 -1.4)"/><path class="cls-1" d="M184.29,170.72H71.42a5.62,5.62,0,0,1-5.62-5.62V138a5.62,5.62,0,0,1,5.62-5.62H184.29a5.62,5.62,0,0,1,5.62,5.62V165.1A5.62,5.62,0,0,1,184.29,170.72ZM77,159.48H178.67V143.63H77Z" transform="translate(-32.5 -1.4)"/><path class="cls-1" d="M127.86,224.9a5.62,5.62,0,0,1-5.62-5.62V138a5.62,5.62,0,1,1,11.24,0v81.27A5.62,5.62,0,0,1,127.86,224.9Z" transform="translate(-32.5 -1.4)"/></svg>