<svg id="Layer_1" data-name="Layer 1" xmlns="http://www.w3.org/2000/svg" viewBox="0 0 506.65 506.65"><defs><style>.cls-1{fill:none;stroke:#231f20;stroke-miterlimit:10;stroke-width:35px;}.cls-2{fill:#231f20;}</style></defs><circle class="cls-1" cx="253.33" cy="253.33" r="235.83"/><path class="cls-2" d="M259.8,364.93c-22.39,0-44.78.19-67.17-.06-15.68-.17-27.16-7.77-34.19-22.14A34.59,34.59,0,0,1,155,327.34V192.5c0-18.62,14.59-35.14,32.61-37.15a59.57,59.57,0,0,1,6.54-.35h133.1c17.07,0,31.36,10.9,36.29,27.57a35,35,0,0,1,1.44,9.91V327.32c0,18.78-14.47,35.17-32.72,37.27a55.64,55.64,0,0,1-6.32.34ZM333.58,248V204c0-2-.63-2.67-2.58-2.62q-7,.18-13.93,0c-2,0-2.58.65-2.56,2.65.09,8,0,16.07.07,24.11,0,2-.49,2.79-2.55,2.59a43.13,43.13,0,0,0-11,.48c-9.52,1.53-17.66,5.69-23.8,13.45-6.29,7.94-8.4,17.12-7.83,27.24.9,16,9.76,27.52,25,31.18,13.05,3.14,25.74,1,38.11-3.8a2.12,2.12,0,0,0,1.49-2.41c-.16-3.14-.47-6.26-.46-9.41C333.61,274.27,333.58,261.12,333.58,248Zm-77.91,54.64h9c.77,0,1.82.45,2.25-.44.33-.71-.43-1.4-.81-2q-12.94-21.75-25.93-43.47a3.47,3.47,0,0,1,0-4.15c8.12-13.58,16.15-27.22,24.2-40.85,1.22-2,1-2.4-1.2-2.41h-16a2.85,2.85,0,0,0-2.9,1.79c-1.75,3.56-3.58,7.07-5.42,10.58-3.67,7-7.37,14-10.78,21.19-.23.48-.36,1.21-1,1.23s-.74-.72-1-1.19c-.74-1.42-1.42-2.87-2.16-4.29-4.77-9.18-10.27-18-14.42-27.5a3,3,0,0,0-3.13-1.81h-17.2c-2.64,0-2.76.19-1.45,2.47q12.17,21.12,24.39,42.21a3.54,3.54,0,0,1,0,4.16q-12.62,21-25.11,42.15c-.34.58-1.05,1.17-.74,1.85.39.85,1.34.47,2.05.47,5.25,0,10.51-.09,15.76.07a4.17,4.17,0,0,0,4.33-2.62c5.21-10.14,10.52-20.23,15.81-30.32.36-.69.42-1.87,1.41-1.82.78.05.95,1.1,1.3,1.75,5.44,10.17,11,20.28,16,30.68a3.57,3.57,0,0,0,3.73,2.27c3-.09,6,0,9,0Z" transform="translate(-6.67 -6.67)"/><path class="cls-2" d="M314.59,267.2v17.4c0,1.79-.46,2.7-2.31,2.92-4.54.55-9,.47-13.27-1.42-6.55-2.91-9.23-8.57-10-15.41a28.17,28.17,0,0,1,.13-7.94,19.21,19.21,0,0,1,18.1-15.91h4.91c1.64,0,2.52.78,2.49,2.72C314.52,255.46,314.59,261.33,314.59,267.2Z" transform="translate(-6.67 -6.67)"/></svg>